<svg width="136" height="136" viewBox="0 0 136 136" fill="none" xmlns="http://www.w3.org/2000/svg" xmlns:xlink="http://www.w3.org/1999/xlink">
<path d="M5.187,0.469C4.259,0.775 3.414,1.35 2.387,2.379C-0.242,5.009 0.006,-1.83 0.006,67.998C0.006,137.827 -0.242,130.988 2.387,133.617C4.961,136.19 1.954,135.997 39.344,135.997C71.373,135.997 72.007,135.987 73.406,135.463C75.34,134.74 76.866,133.366 77.762,131.541L78.509,130.02L78.589,116.939C78.633,109.744 78.712,103.857 78.763,103.857C78.815,103.857 80.572,104.686 82.668,105.699C87.136,107.859 88.234,108.722 89.663,111.192C92.765,116.554 98.246,119.241 103.836,118.14C105.67,117.778 106.978,117.195 112.834,114.124C116.603,112.148 119.849,110.286 120.048,109.987C120.74,108.947 119.684,107.044 118.416,107.044C118.083,107.044 114.832,108.592 111.192,110.483C107.552,112.375 103.986,114.063 103.268,114.235C99.349,115.175 95.088,113.008 93.062,109.044C92.691,108.318 91.637,106.973 90.719,106.056C89.091,104.427 88.668,104.198 72.755,96.332C55.26,87.683 54.979,87.514 54.572,85.346C54.177,83.235 55.453,80.673 57.394,79.683C59.461,78.628 59.311,78.574 70.459,84.424C72.787,85.646 73.115,85.749 73.852,85.492C74.747,85.18 75.188,84.565 75.188,83.627C75.188,83.293 70.739,74.529 65.302,64.153C55.795,46.01 55.416,45.232 55.414,43.827C55.41,41.087 57.392,38.83 60.025,38.577C61.471,38.438 62.986,39.099 63.824,40.234C64.076,40.575 68.123,48.186 72.817,57.149C77.512,66.111 81.601,73.712 81.903,74.041C82.815,75.031 84.469,74.633 85.025,73.291C85.308,72.61 85.188,72.253 83.682,69.275C82.772,67.477 81.935,65.887 81.82,65.741C81.403,65.21 81.262,63.543 81.544,62.495C81.915,61.117 83.793,59.337 85.143,59.084C86.404,58.848 88.061,59.077 88.858,59.599C89.212,59.831 90.334,61.622 91.41,63.674C92.466,65.687 93.511,67.543 93.731,67.799C94.257,68.409 95.688,68.396 96.456,67.774C97.426,66.988 97.191,66.033 95.012,61.919C93.898,59.817 92.987,57.793 92.987,57.421C92.987,56.281 94.006,54.555 95.143,53.767C96.536,52.802 98.784,52.596 100.148,53.308C100.908,53.705 101.395,54.419 102.987,57.468C104.045,59.491 105.115,61.374 105.366,61.651C106.398,62.792 108.661,61.927 108.661,60.391C108.661,60.005 107.765,57.986 106.669,55.904C104.503,51.789 104.347,51.092 105.213,49.395C106.684,46.512 111.09,45.887 113.234,48.258C113.949,49.048 121.517,63.615 123.246,67.527C125.197,71.945 126.897,76.829 128.457,82.502C129.123,84.926 130.155,88.047 130.749,89.438C131.409,90.983 131.883,92.557 131.967,93.482C132.23,96.375 130.722,99.674 128.409,101.269C126.625,102.5 126.195,102.974 126.195,103.709C126.195,104.633 127.267,105.783 128.127,105.783C129.885,105.783 133.327,102.623 134.668,99.777C136.542,95.803 136.444,92.213 134.34,87.654C133.834,86.558 133.041,84.228 132.578,82.475C129.755,71.803 127.753,66.967 120.284,52.781C117.347,47.201 116.615,46.014 115.498,45.01C113.759,43.446 111.201,42.618 108.866,42.862C105.637,43.199 102.684,45.207 101.488,47.879L100.996,48.977L98.254,48.992C95.897,49.004 95.324,49.098 94.183,49.659C92.521,50.476 90.618,52.36 89.894,53.906L89.341,55.087L86.581,55.101C84.112,55.114 83.662,55.194 82.304,55.861C81.45,56.28 80.32,57.136 79.721,57.816L78.657,59.025L78.583,32.501L78.509,5.976L77.762,4.456C76.866,2.631 75.34,1.257 73.406,0.533C72.017,0.014 71.362,0 47.844,0C24.659,0 23.685,0.02 23.095,0.497C22.242,1.188 22.242,2.797 23.095,3.487C23.685,3.965 24.653,3.984 47.615,3.984C74.244,3.984 72.724,3.879 73.922,5.805C74.448,6.652 74.536,7.199 74.617,10.16L74.71,13.547L39.351,13.547L3.991,13.547L3.992,10.293C3.992,6.689 4.293,5.678 5.67,4.667C6.322,4.189 6.92,4.1 10.277,3.984C13.932,3.858 14.161,3.819 14.642,3.224C15.332,2.371 15.279,1.434 14.497,0.652C13.866,0.021 13.727,0.001 10.18,0.016C7.532,0.028 6.146,0.154 5.187,0.469ZM74.592,34.652C74.634,45.055 74.566,51.542 74.415,51.386C74.28,51.246 73.144,49.183 71.889,46.801L69.609,42.471L69.609,35.831C69.609,30.632 69.528,29.036 69.234,28.474C68.672,27.398 67.424,26.318 66.403,26.025C65.837,25.863 55.553,25.767 39.06,25.771C13.665,25.776 12.581,25.797 11.514,26.281C10.814,26.599 10.125,27.205 9.654,27.916L8.906,29.046L8.906,37.566C8.906,45.994 8.913,46.095 9.517,47.068C9.853,47.608 10.57,48.325 11.111,48.661L12.094,49.272L32.593,49.345L53.093,49.418L59.659,61.962C63.27,68.861 66.768,75.512 67.432,76.742L68.638,78.978L66.002,77.578C64.552,76.807 62.78,75.973 62.063,75.723L60.759,75.269L60.304,73.021C59.367,68.391 57.742,65.428 54.201,61.889C50.495,58.184 46.736,56.361 41.544,55.748C31.184,54.527 21.283,61.371 18.441,71.717C17.706,74.393 17.756,79.976 18.54,82.687C20.683,90.097 26.254,95.668 33.666,97.81C36.364,98.59 41.951,98.643 44.637,97.915C47.832,97.049 52.928,94.158 54.412,92.369C54.715,92.003 55.38,92.271 60.123,94.667C63.076,96.159 67.557,98.353 70.081,99.543L74.671,101.707L74.598,105.637L74.524,109.568L39.258,109.635L3.991,109.702L3.991,63.616L3.991,17.529L39.258,17.596L74.524,17.664L74.592,34.652ZM65.566,33.121L65.641,36.359L63.995,35.511C62.533,34.758 62.11,34.665 60.201,34.676C58.597,34.686 57.734,34.833 56.796,35.257C53.224,36.869 51.23,39.869 51.228,43.628L51.228,45.421L32.312,45.421C17.953,45.421 13.319,45.344 13.077,45.102C12.621,44.646 12.622,30.522 13.078,30.067C13.324,29.82 19.406,29.762 39.445,29.814L65.492,29.882L65.566,33.121ZM42.246,59.875C47.278,60.778 51.623,63.765 54.256,68.131C55.352,69.95 56.298,72.569 56.5,74.351L56.638,75.568L55.143,76.337C53.276,77.297 51.732,79.023 50.996,80.975C50.257,82.934 50.366,86.131 51.233,87.903C51.55,88.552 51.81,89.161 51.81,89.258C51.81,89.356 51.099,89.993 50.231,90.676C38.952,99.535 22.639,92.22 21.865,77.956C21.475,70.767 25.414,64.271 32.018,61.214C35.374,59.66 38.656,59.23 42.246,59.875ZM41.789,74.696L35.09,81.394L32.594,78.946C30.39,76.784 29.987,76.498 29.151,76.498C28.445,76.498 28.065,76.676 27.654,77.198C26.661,78.461 26.891,78.968 29.827,81.998C32.84,85.107 34.344,86.326 35.169,86.326C35.532,86.326 38.34,83.709 43.498,78.563C50.528,71.548 51.279,70.716 51.279,69.93C51.279,68.801 50.478,67.998 49.352,67.998C48.577,67.998 47.798,68.688 41.789,74.696ZM74.605,121.454C74.526,128.994 74.506,129.252 73.922,130.191C72.708,132.143 75.186,132.012 39.284,132.012C9.117,132.012 6.988,131.982 6.135,131.547C5.634,131.292 4.977,130.745 4.674,130.333C4.151,129.621 4.12,129.191 4.046,121.634L3.969,113.685L39.327,113.685L74.686,113.685L74.605,121.454ZM31.895,117.715C29.598,118.374 28.316,120.23 28.329,122.877C28.339,124.917 29.22,126.564 30.767,127.433C31.791,128.009 32.057,128.028 39.144,128.028C43.683,128.028 46.746,127.921 47.21,127.745C48.997,127.068 50.201,125.073 50.21,122.772C50.22,120.37 48.721,118.282 46.555,117.681C45.297,117.331 33.134,117.36 31.895,117.715ZM45.997,121.891C46.532,122.324 46.582,122.5 46.352,123.153L46.086,123.911L39.483,123.982C32.497,124.057 32.151,124.003 32.151,122.835C32.151,121.456 32.483,121.388 39.181,121.388C44.865,121.388 45.426,121.429 45.997,121.891Z" clip-rule="evenodd" fill-rule="evenodd" fill="#E5745D"/>
</svg>
