<svg width="136" height="136" viewBox="0 0 136 136" fill="none" xmlns="http://www.w3.org/2000/svg" xmlns:xlink="http://www.w3.org/1999/xlink">
<path d="M136,0L0,0L0,100.903L23.706,100.903C20.056,107.578 17.88,115.168 17.594,123.229C15.024,124.124 13.161,126.546 13.161,129.419C13.161,133.047 16.114,136 19.742,136C23.37,136 26.323,133.047 26.323,129.419C26.323,126.596 24.526,124.203 22.025,123.271C22.337,115.087 24.781,107.46 28.836,100.903L43.976,100.903C44.413,105.764 46.308,110.307 49.427,114.065L46.065,114.065L46.065,118.452L50.452,118.452L50.452,122.839L46.065,122.839L46.065,127.226L50.452,127.226L50.452,136L85.548,136L85.548,127.226L89.935,127.226L89.935,122.839L85.548,122.839L85.548,118.452L89.935,118.452L89.935,114.065L86.575,114.065C89.694,110.307 91.589,105.764 92.026,100.903L107.166,100.903C111.219,107.46 113.665,115.087 113.977,123.271C111.474,124.203 109.677,126.596 109.677,129.419C109.677,133.047 112.63,136 116.258,136C119.886,136 122.839,133.047 122.839,129.419C122.839,126.546 120.976,124.124 118.406,123.229C118.12,115.168 115.947,107.578 112.294,100.903L136,100.903L136,0ZM19.742,131.613C18.533,131.613 17.548,130.628 17.548,129.419C17.548,128.211 18.533,127.226 19.742,127.226C20.951,127.226 21.935,128.211 21.935,129.419C21.935,130.628 20.951,131.613 19.742,131.613ZM116.258,127.226C117.467,127.226 118.452,128.211 118.452,129.419C118.452,130.628 117.467,131.613 116.258,131.613C115.049,131.613 114.065,130.628 114.065,129.419C114.065,128.211 115.049,127.226 116.258,127.226ZM31.894,96.516C36.674,90.475 42.908,85.634 50.098,82.589C46.703,86.356 44.468,91.181 43.983,96.516L31.894,96.516ZM81.161,131.613L54.839,131.613L54.839,127.226L81.161,127.226L81.161,131.613ZM81.161,122.839L54.839,122.839L54.839,118.452L81.161,118.452L81.161,122.839ZM81.819,112.797L81.161,113.442L81.161,114.065L70.194,114.065L70.194,107.172C73.966,106.192 76.774,102.785 76.774,98.71C76.774,93.871 72.839,89.935 68,89.935C63.161,89.935 59.226,93.871 59.226,98.71C59.226,102.785 62.034,106.192 65.806,107.172L65.806,114.065L54.839,114.065L54.839,113.442L54.181,112.797C50.362,109.048 48.258,104.047 48.258,98.71C48.258,87.825 57.116,78.968 68,78.968C78.884,78.968 87.742,87.825 87.742,98.71C87.742,104.047 85.638,109.048 81.819,112.797ZM68,103.097C65.581,103.097 63.613,101.129 63.613,98.71C63.613,96.29 65.581,94.323 68,94.323C70.419,94.323 72.387,96.29 72.387,98.71C72.387,101.129 70.419,103.097 68,103.097ZM92.017,96.516C91.532,91.181 89.297,86.356 85.902,82.589C93.09,85.634 99.326,90.475 104.106,96.516L92.017,96.516ZM131.613,96.516L109.59,96.516C104.347,88.894 97.065,82.785 88.538,78.968L114.468,78.968C115.376,81.514 117.789,83.355 120.645,83.355C124.273,83.355 127.226,80.402 127.226,76.774C127.226,73.146 124.273,70.194 120.645,70.194C117.789,70.194 115.376,72.034 114.468,74.581L21.532,74.581C20.624,72.034 18.211,70.194 15.355,70.194C11.727,70.194 8.774,73.146 8.774,76.774C8.774,80.402 11.727,83.355 15.355,83.355C18.211,83.355 20.624,81.514 21.532,78.968L47.462,78.968C38.935,82.785 31.653,88.894 26.41,96.516L4.387,96.516L4.387,21.935L131.613,21.935L131.613,96.516ZM118.452,76.774C118.452,75.566 119.437,74.581 120.645,74.581C121.854,74.581 122.839,75.566 122.839,76.774C122.839,77.983 121.854,78.968 120.645,78.968C119.437,78.968 118.452,77.983 118.452,76.774ZM17.548,76.774C17.548,77.983 16.563,78.968 15.355,78.968C14.146,78.968 13.161,77.983 13.161,76.774C13.161,75.566 14.146,74.581 15.355,74.581C16.563,74.581 17.548,75.566 17.548,76.774ZM131.613,17.548L4.387,17.548L4.387,4.387L131.613,4.387L131.613,17.548Z" fill="#E5745D"/>
<rect  x="8.774" y="8.774" width="13.161" height="4.387" fill="#E5745D"/>
<rect  x="26.322" y="8.774" width="4.387" height="4.387" fill="#E5745D"/>
<path d="M43.871,26.323L8.774,26.323L8.774,65.807L43.871,65.807L43.871,26.323ZM39.484,61.42L13.162,61.42L13.162,30.71L39.484,30.71L39.484,61.42Z" fill="#E5745D"/>
<path d="M87.742,26.323L48.258,26.323L48.258,65.807L87.742,65.807L87.742,26.323ZM83.355,61.42L52.645,61.42L52.645,30.71L83.355,30.71L83.355,61.42Z" fill="#E5745D"/>
<path d="M127.226,26.323L92.129,26.323L92.129,65.807L127.226,65.807L127.226,26.323ZM122.839,61.42L96.516,61.42L96.516,30.71L122.839,30.71L122.839,61.42Z" fill="#E5745D"/>
</svg>
