<svg width="128" height="140" viewBox="0 0 128 140" fill="none" xmlns="http://www.w3.org/2000/svg" xmlns:xlink="http://www.w3.org/1999/xlink">
<path d="M101.875,0.334C100.145,0.801 98.169,1.823 96.87,2.924C96.245,3.454 93.671,6.967 90.895,11.08L86.019,18.305L47.433,18.312L8.847,18.318L7.234,18.975C3.959,20.308 1.809,22.459 0.612,25.599L0,27.203L0,64.437C0,98.818 0.036,101.787 0.474,103.184C1.436,106.26 4.117,109.069 7.326,110.365L8.847,110.979L31.678,111.058L54.509,111.137L53.041,117.218C52.235,120.563 51.51,123.561 51.432,123.88C51.297,124.435 51.095,124.465 46.794,124.585C41.711,124.727 40.655,125.022 38.58,126.879C36.928,128.357 36.062,130.198 35.877,132.629L35.724,134.628L30.762,134.713L25.8,134.798L25.133,135.566C24.229,136.608 24.229,138.19 25.134,139.232L25.801,140L64,140L102.199,140L102.866,139.232C103.771,138.19 103.771,136.608 102.867,135.566L102.2,134.798L97.238,134.713L92.276,134.628L92.123,132.629C91.938,130.198 91.072,128.357 89.42,126.879C87.345,125.022 86.289,124.727 81.206,124.585C76.905,124.465 76.703,124.435 76.568,123.88C76.49,123.561 75.765,120.563 74.959,117.218L73.491,111.137L96.322,111.058L119.153,110.979L120.744,110.343C123.993,109.044 126.814,105.967 127.627,102.834C127.931,101.663 128,94.544 128,64.3L128,27.203L127.388,25.599C125.721,21.227 121.614,18.305 117.137,18.305C115.14,18.305 115.228,18.544 116.228,15.841C117.388,12.707 116.794,8.072 114.88,5.317C113.848,3.832 111.878,2.054 110.481,1.349C107.907,0.049 104.447,-0.359 101.875,0.334ZM107.873,6.216C109.134,6.854 110.346,8.155 110.902,9.467C111.455,10.774 111.377,13.474 110.751,14.689C110.238,15.683 92.236,37.647 91.544,38.122C91.303,38.287 89.945,37.439 87.203,35.408C85.009,33.783 83.235,32.378 83.262,32.286C83.288,32.194 87.106,26.516 91.745,19.668C100.252,7.11 100.864,6.343 102.883,5.702C104.082,5.322 106.619,5.583 107.873,6.216ZM75.914,33.186L69.579,42.592L67.469,42.781C58.235,43.609 52.209,49.546 50.993,59.013C50.507,62.798 51.209,69.7 52.526,74.073C53.269,76.541 55.196,77.326 57.117,75.944C61.185,73.014 61.391,72.962 69.114,72.916C74.844,72.882 75.651,72.82 77.27,72.284C83.356,70.27 87.018,64.06 86.055,57.387C85.897,56.295 85.753,55.08 85.735,54.687C85.709,54.128 88.41,50.687 98.143,38.881L110.583,23.791L114.752,23.854C118.648,23.914 118.983,23.961 119.891,24.577C121.151,25.433 121.957,26.627 122.311,28.161C122.495,28.958 122.598,38.602 122.602,55.471L122.609,81.548L79.058,81.548C31.756,81.548 34.198,81.469 33.161,83.036C32.571,83.929 32.778,85.52 33.589,86.323C34.157,86.886 34.19,86.887 78.314,87.024L122.471,87.161L122.471,94.279L122.471,101.397L121.703,102.69C121.205,103.529 120.476,104.251 119.63,104.744L118.324,105.504L64,105.504L9.676,105.504L8.37,104.744C7.524,104.251 6.794,103.529 6.297,102.69L5.529,101.397L5.529,94.279L5.529,87.161L10.153,87.024C14.35,86.899 14.829,86.835 15.346,86.323C16.155,85.52 16.362,83.928 15.772,83.036C14.963,81.813 13.827,81.548 9.401,81.548L5.375,81.548L5.452,54.649C5.537,25.015 5.409,27.132 7.231,25.311C8.827,23.717 6.64,23.803 45.963,23.791L82.25,23.781L75.914,33.186ZM84.069,39.942L87.809,42.689L87.308,43.343C85.374,45.871 82.06,49.762 81.832,49.773C81.679,49.78 80.026,48.664 78.157,47.293L74.759,44.8L75.233,44.078C77.944,39.952 79.887,37.196 80.086,37.196C80.219,37.196 82.012,38.432 84.069,39.942ZM75.021,51.775C79.712,55.204 80.002,55.469 80.341,56.634C81.264,59.805 80.454,63.244 78.291,65.341C76.263,67.306 75.752,67.419 68.7,67.45C62.303,67.478 60.284,67.747 58.112,68.86C57.673,69.085 57.262,69.218 57.2,69.156C56.849,68.808 56.45,65.372 56.43,62.521C56.395,57.514 57.371,54.468 59.834,51.889C61.932,49.692 65.445,48.228 68.758,48.17C70.007,48.148 70.26,48.294 75.021,51.775ZM23.451,81.95C20.709,83.124 21.473,87.024 24.445,87.024C27.093,87.024 28.251,83.639 26.069,82.276C25.04,81.633 24.382,81.551 23.451,81.95ZM67.87,111.236C67.87,111.302 68.555,114.205 69.391,117.687C70.227,121.169 70.911,124.133 70.911,124.275C70.911,124.428 68.119,124.531 64,124.531C59.881,124.531 57.089,124.428 57.089,124.275C57.089,124.133 57.773,121.169 58.609,117.687C59.445,114.205 60.13,111.302 60.13,111.236C60.13,111.17 61.871,111.116 64,111.116C66.129,111.116 67.87,111.17 67.87,111.236ZM84.541,130.299C85.858,130.661 86.667,131.878 86.668,133.498L86.67,134.661L63.966,134.661L41.262,134.661L41.388,133.16C41.53,131.464 42.079,130.676 43.381,130.301C44.633,129.942 83.233,129.939 84.541,130.299Z" clip-rule="evenodd" fill-rule="evenodd" fill="#E5745D"/>
</svg>
